<mxfile host="app.diagrams.net" modified="2023-09-23T12:49:38.123Z" agent="Mozilla/5.0 (Windows NT 10.0; Win64; x64) AppleWebKit/537.36 (KHTML, like Gecko) Chrome/117.0.0.0 Safari/537.36 Edg/117.0.2045.36" version="21.8.1" etag="jH2qQe0f7P59twKsgpae" type="github">
  <diagram name="Page-1" id="BWco238264VMgyxwHM1U">
    <mxGraphModel>
      <root>
        <mxCell id="0" />
        <mxCell id="1" parent="0" />
      </root>
    </mxGraphModel>
  </diagram>
</mxfile>
